<?xml version="1.0" encoding="UTF-8" standalone="no"?>
<!-- Created with Inkscape (http://www.inkscape.org/) -->

<svg
   width="16"
   height="16"
   viewBox="0 0 16 16"
   version="1.1"
   id="svg1"
   xml:space="preserve"
   inkscape:version="1.3.2 (091e20ef0f, 2023-11-25, custom)"
   sodipodi:docname="confettis_area.svg"
   xmlns:inkscape="http://www.inkscape.org/namespaces/inkscape"
   xmlns:sodipodi="http://sodipodi.sourceforge.net/DTD/sodipodi-0.dtd"
   xmlns="http://www.w3.org/2000/svg"
   xmlns:svg="http://www.w3.org/2000/svg"><sodipodi:namedview
     id="namedview1"
     pagecolor="#ffffff"
     bordercolor="#000000"
     borderopacity="0.25"
     inkscape:showpageshadow="2"
     inkscape:pageopacity="0.0"
     inkscape:pagecheckerboard="0"
     inkscape:deskcolor="#d1d1d1"
     inkscape:document-units="px"
     showgrid="true"
     inkscape:zoom="9.1039998"
     inkscape:cx="-31.854131"
     inkscape:cy="-4.503515"
     inkscape:window-width="1896"
     inkscape:window-height="1020"
     inkscape:window-x="10"
     inkscape:window-y="46"
     inkscape:window-maximized="1"
     inkscape:current-layer="layer1"><inkscape:grid
       id="grid1"
       units="px"
       originx="0"
       originy="0"
       spacingx="1"
       spacingy="1"
       empcolor="#0099e5"
       empopacity="0.30196078"
       color="#0099e5"
       opacity="0.14901961"
       empspacing="8"
       dotted="false"
       gridanglex="30"
       gridanglez="30"
       visible="true" /></sodipodi:namedview><defs
     id="defs1" /><g
     inkscape:label="Layer 1"
     inkscape:groupmode="layer"
     id="layer1"><path
       style="fill:#f7d22d;fill-opacity:1;stroke-width:3;stroke-linecap:round"
       d="m 9.5732421,13.573242 5.9999999,-5.9999999 3,8.9999999 z"
       id="path1"
       sodipodi:nodetypes="cccc" /><rect
       style="fill:#53c1f7;fill-opacity:1;stroke-width:3;stroke-linecap:round"
       id="rect3"
       width="4"
       height="1"
       x="11.25804"
       y="3.0952158"
       transform="rotate(29.156004)" /><rect
       style="fill:#f46aa8;fill-opacity:1;stroke-width:3;stroke-linecap:round"
       id="rect4"
       width="1"
       height="3"
       x="14.573242"
       y="3.5732422" /><rect
       style="fill:#c0e249;fill-opacity:1;stroke-width:3;stroke-linecap:round"
       id="rect5"
       width="4"
       height="1"
       x="9.3884296"
       y="-7.0859618"
       transform="rotate(60.722387)" /><rect
       style="fill:#53c1f7;fill-opacity:1;stroke-width:3;stroke-linecap:round"
       id="rect7"
       width="6"
       height="1"
       x="6.5027046"
       y="-9.9113913"
       transform="rotate(65.178497)" /><rect
       style="fill:#53c1f7;fill-opacity:1;stroke-width:3;stroke-linecap:round"
       id="rect9"
       width="2"
       height="1"
       x="5.6123471"
       y="10.810917" /><path
       id="rect10"
       style="fill:#f4b800;fill-opacity:1;stroke-width:3;stroke-linecap:round"
       d="m 15.573242,7.573242 -6,6 1.060547,0.353516 5.292969,-5.2929692 z" /><path
       id="path18"
       style="fill:#f4b800;fill-opacity:1;stroke-width:3;stroke-linecap:round"
       d="M 15.573242,7.5732421 13.399414,9.7470702 18.43457,16.157226 Z" /><path
       id="rect11"
       style="fill:#f46aa8;fill-opacity:1;stroke-width:3;stroke-linecap:round"
       d="m 16.432617,10.15332 -4.279297,4.279297 1.060547,0.353516 3.572266,-3.572266 z" /><path
       id="path14"
       style="fill:#f46aa8;fill-opacity:1;stroke-width:3;stroke-linecap:round"
       d="m 17.438476,13.170898 -2.267578,2.267578 1.060547,0.353516 1.560547,-1.560547 z" /><path
       id="path15"
       style="fill:#f78b00;fill-opacity:1;stroke-width:3;stroke-linecap:round"
       d="m 15.573242,7.573242 -2.173828,2.1738282 0.621094,0.7929688 1.90625,-1.9062502 z" /><path
       id="path16"
       style="fill:#ef3b7b;fill-opacity:1;stroke-width:3;stroke-linecap:round"
       d="m 16.432617,10.15332 -1.519531,1.519532 0.621094,0.792968 1.251953,-1.251953 z" /><path
       id="path17"
       style="fill:#ef3b7b;fill-opacity:1;stroke-width:3;stroke-linecap:round"
       d="m 17.438476,13.170898 -0.755859,0.75586 0.621094,0.792968 0.488281,-0.488281 z" /><path
       style="fill:#f7d22d;fill-opacity:1;stroke-width:3;stroke-linecap:round"
       d="m -0.3168678,8.6315014 6.8155876,5.0544796 -8.4622733,4.288348 z"
       id="path19"
       sodipodi:nodetypes="cccc" /><path
       id="path20"
       style="fill:#f4b800;fill-opacity:1;stroke-width:3;stroke-linecap:round"
       d="M 6.4987198,13.685981 -0.3168678,8.6315013 -0.510911,9.7324467 5.5015378,14.191314 Z" /><path
       id="path21"
       style="fill:#f4b800;fill-opacity:1;stroke-width:3;stroke-linecap:round"
       d="m 6.4987198,13.685981 -2.4693192,-1.831262 -5.601794,5.921385 z" /><path
       id="path22"
       style="fill:#f46aa8;fill-opacity:1;stroke-width:3;stroke-linecap:round"
       d="m 4.0726992,14.914701 -4.8609871,-3.604937 -0.1940434,1.100945 4.0578485,3.009325 z" /><path
       id="path23"
       style="fill:#f46aa8;fill-opacity:1;stroke-width:3;stroke-linecap:round"
       d="m 1.2354136,16.352525 -2.5758126,-1.910238 -0.1940434,1.100946 1.7726741,1.314625 z" /><path
       id="path24"
       style="fill:#f78b00;fill-opacity:1;stroke-width:3;stroke-linecap:round"
       d="m 6.4987198,13.685981 -2.4693192,-1.831262 -0.6932318,0.730745 2.165369,1.60585 z" /><path
       id="path25"
       style="fill:#ef3b7b;fill-opacity:1;stroke-width:3;stroke-linecap:round"
       d="M 4.0726992,14.914701 2.3466154,13.634628 1.6533846,14.365372 3.0755172,15.420034 Z" /><path
       id="path26"
       style="fill:#ef3b7b;fill-opacity:1;stroke-width:3;stroke-linecap:round"
       d="M 1.2354136,16.352525 0.3768089,15.71578 -0.3164219,16.446524 0.2382317,16.857858 Z" /><rect
       style="fill:#c0e249;fill-opacity:1;stroke-width:3;stroke-linecap:round"
       id="rect26"
       width="4"
       height="1"
       x="-2.2317731"
       y="9.1196947"
       transform="matrix(-0.87329644,0.48718922,0.48718922,0.87329644,0,0)" /><rect
       style="fill:#53c1f7;fill-opacity:1;stroke-width:3;stroke-linecap:round"
       id="rect27"
       width="4"
       height="1"
       x="2.4255679"
       y="2.4881508"
       transform="matrix(-0.27301067,0.96201101,0.96201101,0.27301067,0,0)" /><rect
       style="fill:#c0e249;fill-opacity:1;stroke-width:3;stroke-linecap:round"
       id="rect28"
       width="6"
       height="1"
       x="-4.8276467"
       y="6.3291702"
       transform="matrix(-0.69688123,0.71718655,0.71718655,0.69688123,0,0)" /><rect
       style="fill:#f46ba8;fill-opacity:0.83529413;stroke-width:3;stroke-linecap:round"
       id="rect29"
       width="2"
       height="1"
       x="-9.661478"
       y="12.178185"
       transform="scale(-1,1)" /><rect
       style="fill:#f46aa8;fill-opacity:1;stroke-width:3;stroke-linecap:round"
       id="rect30"
       width="1"
       height="3"
       x="4.2498274"
       y="-1.3837472"
       transform="rotate(24.448919)" /><rect
       style="fill:#f46aa8;fill-opacity:1;stroke-width:3;stroke-linecap:round"
       id="rect31"
       width="1"
       height="3"
       x="2.9861541"
       y="8.652215"
       transform="rotate(-37.680121)"
       inkscape:transform-center-x="-0.33055218"
       inkscape:transform-center-y="-0.079067193" /></g></svg>
