<?xml version="1.0" encoding="UTF-8" standalone="no"?>
<!-- Created with Inkscape (http://www.inkscape.org/) -->

<svg
   width="3840"
   height="2688"
   viewBox="0 0 3840 2687.9999"
   version="1.1"
   id="svg1"
   xml:space="preserve"
   inkscape:version="1.3.2 (091e20e, 2023-11-25)"
   sodipodi:docname="circuit.svg"
   xmlns:inkscape="http://www.inkscape.org/namespaces/inkscape"
   xmlns:sodipodi="http://sodipodi.sourceforge.net/DTD/sodipodi-0.dtd"
   xmlns:xlink="http://www.w3.org/1999/xlink"
   xmlns="http://www.w3.org/2000/svg"
   xmlns:svg="http://www.w3.org/2000/svg"><sodipodi:namedview
     id="namedview1"
     pagecolor="#ffffff"
     bordercolor="#000000"
     borderopacity="0.25"
     inkscape:showpageshadow="2"
     inkscape:pageopacity="0.0"
     inkscape:pagecheckerboard="0"
     inkscape:deskcolor="#d1d1d1"
     inkscape:document-units="px"
     inkscape:zoom="0.84"
     inkscape:cx="2206.5476"
     inkscape:cy="512.5"
     inkscape:window-width="1472"
     inkscape:window-height="890"
     inkscape:window-x="0"
     inkscape:window-y="38"
     inkscape:window-maximized="1"
     inkscape:current-layer="layer1"
     showgrid="false"><inkscape:grid
       id="grid1"
       units="px"
       originx="1920.2368"
       originy="128.16312"
       spacingx="64"
       spacingy="64"
       empcolor="#0099e5"
       empopacity="0.30196078"
       color="#0099e5"
       opacity="0.14901961"
       empspacing="2"
       dotted="false"
       gridanglex="30"
       gridanglez="30"
       visible="false" /><inkscape:page
       x="0"
       y="0"
       width="3840"
       height="2688"
       id="page21"
       margin="0"
       bleed="0" /><inkscape:page
       x="3850"
       y="0"
       width="3840"
       height="2688"
       id="page22"
       margin="0"
       bleed="0"
       inkscape:label="obstacle" /><inkscape:page
       x="7700"
       y="0"
       width="3840"
       height="2688"
       id="page23"
       margin="0"
       bleed="0"
       inkscape:label="background" /></sodipodi:namedview><defs
     id="defs1"><pattern
       inkscape:collect="always"
       xlink:href="#ZigZag"
       preserveAspectRatio="none"
       id="pattern21"
       patternTransform="matrix(0.96592582,0.25881904,-0.07764571,0.28977775,0,0)"
       x="0"
       y="0"
       height="144" /><pattern
       patternUnits="userSpaceOnUse"
       width="100"
       height="90"
       patternTransform="scale(0.2)"
       inkscape:stockid="Zig Zag"
       id="ZigZag"
       style="fill:#0074e3"
       x="0"
       y="0"
       preserveAspectRatio="none"
       inkscape:collect="always"
       inkscape:isstock="true"
       inkscape:label="Zig Zag"><path
         style="opacity:1;fill-opacity:1;stroke:none;stroke-width:1;stroke-dasharray:none"
         d="M 50,90 0,40 V 10 L 50,60 100,10 V 40 L 50,90"
         id="zigzag-path-pattern"
         sodipodi:nodetypes="ccccccc" /></pattern></defs><g
     inkscape:label="background"
     inkscape:groupmode="layer"
     id="layer1"
     transform="translate(1920.2368,128.1631)"><rect
       style="opacity:1;fill:#006dd2;fill-opacity:1;stroke:none;stroke-width:256;stroke-linecap:round;stroke-linejoin:round;stroke-dasharray:none;stroke-dashoffset:6.6;stroke-opacity:1"
       id="rect14"
       width="3840"
       height="2688"
       x="-1920"
       y="-127.99998"
       rx="10"
       ry="10"
       inkscape:label="waterBG" /><rect
       style="opacity:1;fill:url(#pattern21);fill-opacity:1;stroke:none;stroke-width:256;stroke-linecap:round;stroke-linejoin:round;stroke-dasharray:none;stroke-dashoffset:6.6;stroke-opacity:1"
       id="rect15"
       width="3840"
       height="2688"
       x="-1920"
       y="-127.99998"
       rx="10"
       ry="10"
       inkscape:label="waterWaves" /><path
       id="path14"
       style="opacity:1;fill:#f4e4c5;fill-opacity:1;stroke:#29976f;stroke-width:128;stroke-linecap:round;stroke-linejoin:round;stroke-dasharray:none;stroke-dashoffset:6.6;stroke-opacity:1"
       d="M -831.99996,222.00014 -1536,926.0001 v 832 l 448,448 h 384.00002 l 448,-448 v -338 l 128,-128 h 256 l 128,128 v 338 l 448,448 H 1088 l 448,-448 v -832 L 1088,478.00014 H 832.00004 l -256,-256 z m 128,384 h 1152 l 256,256 h 256 L 1152,1054.0001 v 576 l -191.99998,192 h -128 l -192,-192 v -384 l -322,-320 h -574 l -384,320 v 384 l -192,192 h -128 l -192.00002,-192 v -576 z"
       sodipodi:nodetypes="cccccccccccccccccccccccccccccccccccccc"
       inkscape:label="depth" /><use
       x="0"
       y="0"
       xlink:href="#rect14"
       id="use26"
       transform="translate(7699.7632,-0.16312289)"
       style="display:inline"
       inkscape:label="waterBGClone" /><use
       x="0"
       y="0"
       xlink:href="#rect15"
       id="use27"
       transform="translate(7699.7632,-0.16312289)"
       inkscape:label="waterWavesClone" /><use
       x="0"
       y="0"
       xlink:href="#path14"
       id="use28"
       transform="translate(7699.7632,-0.1631229)"
       inkscape:label="depthClone" /></g><g
     inkscape:groupmode="layer"
     id="layer2"
     inkscape:label="obstacle"><path
       id="path12"
       style="opacity:1;fill:none;fill-opacity:1;stroke:#2ac079;stroke-width:128;stroke-linecap:round;stroke-linejoin:round;stroke-dasharray:none;stroke-dashoffset:6.6;stroke-opacity:1"
       d="m -831.99996,192.00014 -704.00004,704 v 831.99996 l 448,448 h 384.00002 l 448,-448 v -320 l 128,-128 h 256 l 128,146 v 302 l 448,448 H 1088 l 448,-448 V 896.00014 l -448,-448 H 832.00004 l -256,-256 z m 128,384 h 1152 l 256,256 h 256 L 1152,1024.0001 v 576 l -191.99998,192 h -128 l -192,-192 v -384 l -322,-319.99998 h -574 l -384,319.99998 v 384 l -192,192 h -128 l -192.00002,-192 v -576 z"
       sodipodi:nodetypes="cccccccccccccccccccccccccccccccccccccc"
       inkscape:label="obstacle"
       transform="translate(1920.2368,128.1631)" /><use
       x="0"
       y="0"
       xlink:href="#path12"
       id="use23"
       transform="translate(3849.7632,-0.16312289)"
       inkscape:label="obstacleClone" /></g></svg>
